<svg xmlns="http://www.w3.org/2000/svg" viewBox="0 0 800 450" preserveAspectRatio="xMidYMid slice" role="img" aria-label="GefStoffV §14">
  <defs>
    <linearGradient id="g_gefahrstoffe" x1="0" y1="0" x2="1" y2="1">
      <stop offset="0" stop-color="#6A5A4A"/>
      <stop offset="0.55" stop-color="#C99B45" stop-opacity="0.75"/>
      <stop offset="1" stop-color="#44524B"/>
    </linearGradient>
    <pattern id="p_gefahrstoffe" patternUnits="userSpaceOnUse" width="40" height="40" patternTransform="rotate(0)">
      <circle cx="20" cy="20" r="0.9" fill="#ffffff" fill-opacity="0.12"/>
    </pattern>
    <radialGradient id="rg_gefahrstoffe" cx="0.7" cy="0.25" r="0.9">
      <stop offset="0" stop-color="#ffffff" stop-opacity="0.18"/>
      <stop offset="1" stop-color="#ffffff" stop-opacity="0"/>
    </radialGradient>
  </defs>
  <rect width="800" height="450" fill="url(#g_gefahrstoffe)"/>
  <rect width="800" height="450" fill="url(#p_gefahrstoffe)"/>
  <rect width="800" height="450" fill="url(#rg_gefahrstoffe)"/>
  <!-- Sage-Overlay für Marken-Anmutung -->
  <rect width="800" height="450" fill="#5F7066" fill-opacity="0.18"/>
  <!-- Akzent-Linie unten links -->
  <line x1="60" y1="386" x2="140" y2="386" stroke="#C99B45" stroke-width="2"/>
  <text x="60" y="412" font-family="Inter, sans-serif" font-size="13" font-weight="500" letter-spacing="2.4" fill="#ffffff" fill-opacity="0.88">GEFSTOFFV §14</text>
  <!-- Großes Icon in der Mitte -->
  <g transform="translate(348,150) scale(1.04)" color="#ffffff" opacity="0.95">
    <path d="M36 12v18L20 70a8 8 0 007 12h46a8 8 0 007-12L64 30V12" fill="none" stroke="currentColor" stroke-width="1.8" stroke-linejoin="round"/><line x1="36" y1="12" x2="64" y2="12" stroke="currentColor" stroke-width="1.8" stroke-linecap="round"/><circle cx="38" cy="62" r="3" fill="currentColor"/><circle cx="56" cy="56" r="2" fill="currentColor"/>
  </g>
  <!-- Gold-Marker rechts oben -->
  <circle cx="740" cy="60" r="4" fill="#C99B45"/>
  <text x="722" y="64" font-family="Inter, sans-serif" font-size="11" letter-spacing="1.6" fill="#ffffff" fill-opacity="0.7" text-anchor="end">HERWARDTIMM</text>
</svg>
