<svg xmlns="http://www.w3.org/2000/svg" viewBox="0 0 800 450" preserveAspectRatio="xMidYMid slice" role="img" aria-label="TRGS 401">
  <defs>
    <linearGradient id="g_hautschutz_psa_haende" x1="0" y1="0" x2="1" y2="1">
      <stop offset="0" stop-color="#5F7066"/>
      <stop offset="0.55" stop-color="#D8E4DC" stop-opacity="0.75"/>
      <stop offset="1" stop-color="#44524B"/>
    </linearGradient>
    <pattern id="p_hautschutz_psa_haende" patternUnits="userSpaceOnUse" width="40" height="40" patternTransform="rotate(0)">
      <circle cx="20" cy="20" r="0.9" fill="#ffffff" fill-opacity="0.12"/>
    </pattern>
    <radialGradient id="rg_hautschutz_psa_haende" cx="0.7" cy="0.25" r="0.9">
      <stop offset="0" stop-color="#ffffff" stop-opacity="0.18"/>
      <stop offset="1" stop-color="#ffffff" stop-opacity="0"/>
    </radialGradient>
  </defs>
  <rect width="800" height="450" fill="url(#g_hautschutz_psa_haende)"/>
  <rect width="800" height="450" fill="url(#p_hautschutz_psa_haende)"/>
  <rect width="800" height="450" fill="url(#rg_hautschutz_psa_haende)"/>
  <!-- Sage-Overlay für Marken-Anmutung -->
  <rect width="800" height="450" fill="#5F7066" fill-opacity="0.18"/>
  <!-- Akzent-Linie unten links -->
  <line x1="60" y1="386" x2="140" y2="386" stroke="#C99B45" stroke-width="2"/>
  <text x="60" y="412" font-family="Inter, sans-serif" font-size="13" font-weight="500" letter-spacing="2.4" fill="#ffffff" fill-opacity="0.88">TRGS 401</text>
  <!-- Großes Icon in der Mitte -->
  <g transform="translate(348,150) scale(1.04)" color="#ffffff" opacity="0.95">
    <path d="M30 56V22a6 6 0 0112 0v22M42 44V14a6 6 0 0112 0v30M54 44V20a6 6 0 0112 0v34M66 44a6 6 0 0112 0v18a24 24 0 01-24 24h-8c-8 0-14-4-18-10L18 62a6 6 0 018-8l6 8" fill="none" stroke="currentColor" stroke-width="1.8" stroke-linejoin="round" stroke-linecap="round"/>
  </g>
  <!-- Gold-Marker rechts oben -->
  <circle cx="740" cy="60" r="4" fill="#C99B45"/>
  <text x="722" y="64" font-family="Inter, sans-serif" font-size="11" letter-spacing="1.6" fill="#ffffff" fill-opacity="0.7" text-anchor="end">HERWARDTIMM</text>
</svg>
