<svg xmlns="http://www.w3.org/2000/svg" viewBox="0 0 800 450" preserveAspectRatio="xMidYMid slice" role="img" aria-label="DGUV I 206-009">
  <defs>
    <linearGradient id="g_suchtpraevention" x1="0" y1="0" x2="1" y2="1">
      <stop offset="0" stop-color="#7E5A4A"/>
      <stop offset="0.55" stop-color="#C99B45" stop-opacity="0.75"/>
      <stop offset="1" stop-color="#44524B"/>
    </linearGradient>
    <pattern id="p_suchtpraevention" patternUnits="userSpaceOnUse" width="40" height="40" patternTransform="rotate(0)">
      <circle cx="20" cy="20" r="0.9" fill="#ffffff" fill-opacity="0.12"/>
    </pattern>
    <radialGradient id="rg_suchtpraevention" cx="0.7" cy="0.25" r="0.9">
      <stop offset="0" stop-color="#ffffff" stop-opacity="0.18"/>
      <stop offset="1" stop-color="#ffffff" stop-opacity="0"/>
    </radialGradient>
  </defs>
  <rect width="800" height="450" fill="url(#g_suchtpraevention)"/>
  <rect width="800" height="450" fill="url(#p_suchtpraevention)"/>
  <rect width="800" height="450" fill="url(#rg_suchtpraevention)"/>
  <!-- Sage-Overlay für Marken-Anmutung -->
  <rect width="800" height="450" fill="#5F7066" fill-opacity="0.18"/>
  <!-- Akzent-Linie unten links -->
  <line x1="60" y1="386" x2="140" y2="386" stroke="#C99B45" stroke-width="2"/>
  <text x="60" y="412" font-family="Inter, sans-serif" font-size="13" font-weight="500" letter-spacing="2.4" fill="#ffffff" fill-opacity="0.88">DGUV I 206-009</text>
  <!-- Großes Icon in der Mitte -->
  <g transform="translate(348,150) scale(1.04)" color="#ffffff" opacity="0.95">
    <path d="M44 14L8 76a6 6 0 005 9h74a6 6 0 005-9L56 14a6 6 0 00-12 0z" fill="none" stroke="currentColor" stroke-width="1.8" stroke-linejoin="round"/><line x1="50" y1="38" x2="50" y2="58" stroke="currentColor" stroke-width="1.8" stroke-linecap="round"/><circle cx="50" cy="70" r="2" fill="currentColor"/>
  </g>
  <!-- Gold-Marker rechts oben -->
  <circle cx="740" cy="60" r="4" fill="#C99B45"/>
  <text x="722" y="64" font-family="Inter, sans-serif" font-size="11" letter-spacing="1.6" fill="#ffffff" fill-opacity="0.7" text-anchor="end">HERWARDTIMM</text>
</svg>
